<?xml version="1.0" encoding="iso-8859-1"?>
<!-- Generator: Adobe Illustrator 19.0.0, SVG Export Plug-In . SVG Version: 6.00 Build 0)  -->
<svg version="1.1" id="Capa_1" xmlns="http://www.w3.org/2000/svg" xmlns:xlink="http://www.w3.org/1999/xlink" x="0px" y="0px"
	 viewBox="0 0 511.999 511.999" style="enable-background:new 0 0 511.999 511.999;" xml:space="preserve">
<path style="fill:#C27C59;" d="M256,165.573c-9.267,0-16.779-7.512-16.779-16.779v-40.392c0-28.6-23.267-51.867-51.867-51.867
	c-9.267,0-16.779-7.512-16.779-16.779s7.512-16.779,16.779-16.779c47.103,0,85.425,38.322,85.425,85.425v40.392
	C272.779,158.061,265.267,165.573,256,165.573z"/>
<path style="opacity:0.1;enable-background:new    ;" d="M267.045,77.689c-8.398,15.668-12.075,31.281-13.327,44.88
	c-0.256,2.78-2.661,4.865-5.451,4.759c-3.022-0.115-6.038-0.297-9.046-0.543v21.57c0,9.405,7.696,17.392,17.099,17.216
	c9.119-0.171,16.459-7.616,16.459-16.776v-40.392C272.779,97.578,270.734,87.227,267.045,77.689z"/>
<path style="fill:#FF6E6E;" d="M356.254,127.028c-11.848,0-23.269,1.832-33.993,5.229c-43.042,13.633-89.479,13.633-132.521,0
	c-10.724-3.397-22.145-5.229-33.993-5.229c-62.111,0-112.462,50.351-112.462,112.462c0,75.962,47.548,188.273,74.296,230.177
	l0.006-0.002c15.496,24.393,40.031,42.334,70.597,42.334c20.254,0,38.743-7.53,52.834-19.94c8.55-7.53,21.413-7.53,29.963,0
	c14.092,12.41,32.58,19.94,52.834,19.94c30.566,0,55.102-17.941,70.598-42.333l0.006,0.002
	c26.748-41.904,74.296-154.215,74.296-230.177C468.715,177.379,418.365,127.028,356.254,127.028z"/>
<path style="fill:#54B88B;" d="M386.652,133.875c-33.585,33.585-72.879,36.469-95.896,34.492
	c-12.218-1.049-21.957-10.788-23.007-23.006c-1.977-23.017,0.907-62.311,34.492-95.896c36.747-36.747,90.287-46.7,117.511-49.391
	c9.363-0.926,17.217,6.928,16.291,16.291C433.351,43.588,423.398,97.129,386.652,133.875z"/>
<path style="opacity:0.1;enable-background:new    ;" d="M311.585,132.031c-1.919,0-3.839-0.732-5.304-2.196
	c-2.929-2.93-2.929-7.678,0-10.607l83.649-83.649c2.93-2.928,7.678-2.928,10.607,0c2.929,2.93,2.929,7.678,0,10.607l-83.649,83.649
	C315.424,131.299,313.504,132.031,311.585,132.031z"/>
<g>
	<ellipse style="fill:#FFA6BB;" cx="154.59" cy="292.719" rx="37.417" ry="29.797"/>
	<ellipse style="fill:#FFA6BB;" cx="357.41" cy="292.719" rx="37.417" ry="29.797"/>
</g>
<g>
	<path style="fill:#414B58;" d="M194.21,267.792c-4.142,0-7.5-3.357-7.5-7.5c0-5.685-4.625-10.31-10.31-10.31
		s-10.31,4.625-10.31,10.31c0,4.143-3.358,7.5-7.5,7.5s-7.5-3.357-7.5-7.5c0-13.956,11.354-25.31,25.31-25.31
		s25.31,11.353,25.31,25.31C201.71,264.435,198.352,267.792,194.21,267.792z"/>
	<path style="fill:#414B58;" d="M353.409,267.792c-4.143,0-7.5-3.357-7.5-7.5c0-5.685-4.625-10.31-10.31-10.31
		s-10.31,4.625-10.31,10.31c0,4.143-3.357,7.5-7.5,7.5c-4.142,0-7.5-3.357-7.5-7.5c0-13.956,11.354-25.31,25.31-25.31
		s25.31,11.353,25.31,25.31C360.909,264.435,357.552,267.792,353.409,267.792z"/>
	<path style="fill:#414B58;" d="M256,297.215c-9.407,0-18.354-4.074-24.545-11.179c-2.722-3.122-2.396-7.86,0.726-10.582
		c3.122-2.721,7.86-2.397,10.581,0.727c3.342,3.835,8.167,6.034,13.238,6.034c5.07,0,9.895-2.199,13.237-6.034
		c2.722-3.122,7.46-3.448,10.582-0.727c3.123,2.722,3.447,7.46,0.727,10.582C274.353,293.141,265.407,297.215,256,297.215z"/>
</g>
<path style="opacity:0.1;enable-background:new    ;" d="M181.265,129.942c-8.199-1.903-16.74-2.914-25.518-2.914
	c-62.111,0-112.462,50.351-112.462,112.462c0,75.962,47.548,188.274,74.296,230.177l0.006-0.002
	c15.496,24.393,40.031,42.334,70.597,42.334c19.518,0,37.385-7.007,51.269-18.621C98.931,318.81,139.215,160.736,181.265,129.942z"
	/>
<g>
</g>
<g>
</g>
<g>
</g>
<g>
</g>
<g>
</g>
<g>
</g>
<g>
</g>
<g>
</g>
<g>
</g>
<g>
</g>
<g>
</g>
<g>
</g>
<g>
</g>
<g>
</g>
<g>
</g>
</svg>
