<svg id="Capa_1" enable-background="new 0 0 497 497" height="512" viewBox="0 0 497 497" width="512" xmlns="http://www.w3.org/2000/svg"><g><path d="m479.94 124.564c-4.651-11.054-4.307-23.661 1.325-34.249 11.965-22.492 9.664-49.596-7.66-66.919-17.324-17.324-44.427-19.625-66.919-7.66-10.588 5.632-23.195 5.976-34.249 1.325-88.898-37.405-204.005-12.858-286.119 69.257s-106.662 197.221-69.258 286.118c4.651 11.054 4.307 23.662-1.325 34.25-11.965 22.492-9.664 49.596 7.66 66.919 17.324 17.324 44.427 19.625 66.919 7.66 10.588-5.632 23.195-5.976 34.249-1.325 88.897 37.404 204.004 12.857 286.118-69.257s106.663-197.222 69.259-286.119z" fill="#f8ea69"/><path d="m479.94 124.564c-4.651-11.054-4.307-23.661 1.325-34.249 11.965-22.492 9.664-49.596-7.66-66.919-5.313-5.313-11.548-9.206-18.285-11.715 5.672 15.231 4.24 33.04-4.055 48.634-5.632 10.588-5.976 23.195-1.325 34.249 37.405 88.897 12.857 204.004-69.257 286.119s-197.222 106.661-286.119 69.257c-11.054-4.651-23.661-4.308-34.249 1.325-15.594 8.295-33.403 9.727-48.634 4.055 2.509 6.737 6.402 12.973 11.715 18.285 17.324 17.324 44.427 19.625 66.919 7.66 10.588-5.632 23.195-5.976 34.249-1.325 88.897 37.404 204.004 12.857 286.118-69.257s106.662-197.222 69.258-286.119z" fill="#f8ad3e"/><g><ellipse cx="178.37" cy="367.398" fill="#ffa1ac" rx="49.319" ry="39.275" transform="matrix(.707 -.707 .707 .707 -207.546 233.735)"/><ellipse cx="367.398" cy="178.37" fill="#ffa1ac" rx="49.319" ry="39.275" transform="matrix(.707 -.707 .707 .707 -18.518 312.033)"/><ellipse cx="251.545" cy="251.546" fill="#423e4f" rx="26.18" ry="29.295" transform="matrix(.707 -.707 .707 .707 -104.194 251.548)"/></g><g><path d="m148.314 329.989c-11.506-11.505-11.509-30.131 0-41.639 11.506-11.506 30.131-11.508 41.639 0 2.929 2.929 2.929 7.678 0 10.607s-7.678 2.929-10.606 0c-5.644-5.644-14.78-5.645-20.426 0-5.644 5.645-5.646 14.781 0 20.426 2.929 2.929 2.929 7.678 0 10.607-2.929 2.928-7.678 2.928-10.607-.001z" fill="#423e4f"/></g><g><path d="m287.013 191.29c-11.506-11.506-11.508-30.131 0-41.639 11.479-11.479 30.158-11.481 41.64 0 2.929 2.929 2.929 7.678 0 10.607-2.931 2.929-7.679 2.928-10.607 0-5.629-5.631-14.793-5.632-20.426 0-5.643 5.643-5.645 14.781 0 20.426 2.929 2.929 2.929 7.678 0 10.607-2.929 2.927-7.678 2.928-10.607-.001z" fill="#423e4f"/></g></g></svg>