<?xml version="1.0" encoding="iso-8859-1"?>
<!-- Generator: Adobe Illustrator 19.0.0, SVG Export Plug-In . SVG Version: 6.00 Build 0)  -->
<svg version="1.1" id="Capa_1" xmlns="http://www.w3.org/2000/svg" xmlns:xlink="http://www.w3.org/1999/xlink" x="0px" y="0px"
	 viewBox="0 0 512 512" style="enable-background:new 0 0 512 512;" xml:space="preserve">
<path style="fill:#FFC5BB;" d="M97.5,188.749c-45.491,0-82.5-37.009-82.5-82.5c0-4.142-3.358-7.5-7.5-7.5s-7.5,3.358-7.5,7.5
	c0,53.762,43.738,97.5,97.5,97.5h20v-15H97.5z"/>
<rect x="167.29" y="188.75" style="fill:#FFF1CF;" width="70.21" height="15"/>
<path style="fill:#B26156;" d="M108.013,299.689l14.975,0.864l-10.669,184.896l24.553,8.185c3.93,1.31,6.053,5.557,4.744,9.487
	c-1.048,3.143-3.974,5.13-7.114,5.13c-0.786,0-1.586-0.125-2.373-0.387l-30-10c-3.214-1.071-5.311-4.165-5.116-7.547
	L108.013,299.689z"/>
<path style="fill:#864941;" d="M168.013,299.689l14.975,0.864l-10.669,184.896l24.553,8.185c3.93,1.31,6.053,5.557,4.744,9.487
	c-1.048,3.143-3.974,5.13-7.114,5.13c-0.786,0-1.586-0.125-2.373-0.387l-30-10c-3.214-1.071-5.311-4.165-5.116-7.547
	L168.013,299.689z"/>
<path style="fill:#5DC09A;" d="M228.012,299.689l14.975,0.864l-10.669,184.896l24.553,8.185c3.93,1.31,6.053,5.557,4.744,9.487
	c-1.048,3.143-3.974,5.13-7.114,5.13c-0.786,0-1.586-0.125-2.373-0.387l-30-10c-3.214-1.071-5.311-4.165-5.116-7.547
	L228.012,299.689z"/>
<g>
	<path style="fill:#4DA081;" d="M288.012,299.689l14.975,0.864l-10.669,184.896l24.553,8.185c3.93,1.31,6.053,5.557,4.744,9.487
		c-1.048,3.143-3.974,5.13-7.114,5.13c-0.786,0-1.586-0.125-2.373-0.387l-30-10c-3.214-1.071-5.311-4.165-5.116-7.547
		L288.012,299.689z"/>
	<path style="fill:#4DA081;" d="M262.5,3.749l15,90h30v-45C307.5,23.896,287.353,3.749,262.5,3.749z"/>
</g>
<path style="fill:#5DC09A;" d="M262.5,3.749c-24.853,0-45,20.147-45,45v45h60v-45C277.5,23.896,270.784,3.749,262.5,3.749z"/>
<path style="fill:#4DA081;" d="M262.5,258.749v75c24.853,0,45-20.147,45-45L262.5,258.749z"/>
<path style="fill:#5DC09A;" d="M277.5,288.749l-30-30l-30,30c0,24.853,20.147,45,45,45C270.784,333.749,277.5,313.602,277.5,288.749
	z"/>
<g>
	<path style="fill:#FFE29E;" d="M307.5,203.749c45.491,0,82.5,37.009,82.5,82.5c0,4.142,3.358,7.5,7.5,7.5s7.5-3.358,7.5-7.5
		c0-53.762-43.738-97.5-97.5-97.5h-20v15H307.5z"/>
	<path style="fill:#FFE29E;" d="M287.5,168.749h-30l20,120h30v-100C307.5,177.703,298.546,168.749,287.5,168.749z"/>
</g>
<path style="fill:#FFF1CF;" d="M257.5,168.749h-20c-11.046,0-20,8.954-20,20v100h60v-100
	C277.5,177.703,268.546,168.749,257.5,168.749z"/>
<path style="fill:#63352F;" d="M262.5,48.749v65l45-20C307.5,68.896,287.353,48.749,262.5,48.749z"/>
<path style="fill:#CC8073;" d="M262.5,78.769v59.98c24.853,0,45-20.147,45-45C290.607,93.749,275.031,88.175,262.5,78.769z"/>
<path style="fill:#864941;" d="M277.351,87.453c-1.021-21.87-7.279-38.704-14.851-38.704c-7.667,0-14.884,1.923-21.202,5.305
	l21.202,59.695L277.351,87.453z"/>
<path style="fill:#E59F8F;" d="M241.298,54.054c-14.161,7.58-23.798,22.51-23.798,39.695c0,24.853,20.147,45,45,45
	c8.284,0,15-20.147,15-45c0-2.138-0.053-4.238-0.149-6.296C261.909,80.675,249.196,68.848,241.298,54.054z"/>
<polygon style="fill:#B26156;" points="157.5,18.749 127.5,93.749 187.5,93.749 187.5,18.749 "/>
<path style="fill:#CC8073;" d="M142.5,18.749c-24.853,0-45,20.147-45,45v30h60v-75H142.5z"/>
<path style="fill:#864941;" d="M142.5,258.749v75c24.853,0,45-20.147,45-45L142.5,258.749z"/>
<path style="fill:#B26156;" d="M157.5,288.749l-30-30l-30,30c0,24.853,20.147,45,45,45C150.784,333.749,157.5,313.602,157.5,288.749
	z"/>
<path style="fill:#E44670;" d="M167.5,168.749h-30l20,120h30v-100C187.5,177.703,178.546,168.749,167.5,168.749z"/>
<path style="fill:#FF6288;" d="M137.5,168.749h-20c-11.046,0-20,8.954-20,20v100h60v-100
	C157.5,177.703,148.546,168.749,137.5,168.749z"/>
<path style="fill:#FFA4A9;" d="M142.5,48.749v90c24.853,0,45-20.147,45-45S167.353,48.749,142.5,48.749z"/>
<path style="fill:#FFC5BB;" d="M157.5,93.749c0-24.853-6.716-45-15-45c-24.853,0-45,20.147-45,45s20.147,45,45,45
	C150.784,138.749,157.5,118.602,157.5,93.749z"/>
<g>
	<circle style="fill:#FFFFFF;" cx="142.5" cy="199.38" r="7.5"/>
	<circle style="fill:#FFFFFF;" cx="142.5" cy="229.38" r="7.5"/>
</g>
<path style="fill:#B26156;" d="M467,406.995v90.003c0,4.142,3.357,7.5,7.5,7.5s7.5-3.358,7.5-7.5v-90.003H467z"/>
<path style="fill:#864941;" d="M497,406.995v90.003c0,4.142,3.357,7.5,7.5,7.5s7.5-3.358,7.5-7.5v-70L497,406.995z"/>
<path style="fill:#63352F;" d="M362,361.995c0-4.142-3.357-7.5-7.5-7.5s-7.5,3.358-7.5,7.5v16.418l15,17.17V361.995z"/>
<path style="fill:#864941;" d="M474.5,269.495c-4.143,0-7.5,3.358-7.5,7.5v25h15v-25C482,272.853,478.643,269.495,474.5,269.495z"/>
<path style="fill:#63352F;" d="M482,291.998l12.5,55l-33.99-20c-8.29,0-15-6.72-15-15v-20H482z"/>
<g>
	<path style="fill:#B26156;" d="M460.51,326.998v15c0,8.25-6.63,16.25-14.74,17.78L347,378.413v118.585c0,4.142,3.357,7.5,7.5,7.5
		s7.5-3.358,7.5-7.5v-40.945c12.94-3.33,22.5-15.075,22.5-29.055H482l20-100H460.51z"/>
	<path style="fill:#B26156;" d="M407,496.998c0,4.142,3.357,7.5,7.5,7.5s7.5-3.358,7.5-7.5v-90.003h-15V496.998z"/>
</g>
<path style="fill:#63352F;" d="M504.5,269.495c-4.143,0-7.5,3.358-7.5,7.5v25l15-9.997v-15.003
	C512,272.853,508.643,269.495,504.5,269.495z"/>
<rect x="482" y="292" style="fill:#864941;" width="30" height="135"/>
<g>
</g>
<g>
</g>
<g>
</g>
<g>
</g>
<g>
</g>
<g>
</g>
<g>
</g>
<g>
</g>
<g>
</g>
<g>
</g>
<g>
</g>
<g>
</g>
<g>
</g>
<g>
</g>
<g>
</g>
</svg>
