<svg height="512pt" viewBox="0 0 512 512" width="512pt" xmlns="http://www.w3.org/2000/svg"><path d="m493.488281 98.839844c-11.9375-11.941406-27.816406-18.511719-44.6875-18.511719h-385.601562c-16.871094 0-32.75 6.570313-44.699219 18.523437-11.929688 11.9375-18.5 27.808594-18.5 44.679688v305.269531c0 16.871094 6.570312 32.738281 18.511719 44.699219 11.949219 11.929688 27.816406 18.5 44.6875 18.5h385.601562c16.871094 0 32.738281-6.570312 44.699219-18.511719 11.929688-11.949219 18.5-27.816406 18.5-44.6875v-305.269531c0-16.871094-6.570312-32.742188-18.511719-44.691406zm0 0" fill="#ede9e8"/><path d="m512 143.53125v305.269531c0 16.871094-6.570312 32.738281-18.5 44.6875-11.960938 11.941407-27.828125 18.511719-44.699219 18.511719h-192.800781v-431.671875h192.800781c16.871094 0 32.75 6.570313 44.6875 18.511719 11.941407 11.949218 18.511719 27.820312 18.511719 44.691406zm0 0" fill="#dfd7d5"/><path d="m0 176.730469h512v30h-512zm0 0" fill="#fdbf00"/><path d="m256 176.730469h256v30h-256zm0 0" fill="#fdbf00"/><path d="m493.488281 98.839844c-11.9375-11.941406-27.816406-18.511719-44.6875-18.511719h-385.601562c-16.871094 0-32.75 6.570313-44.699219 18.523437-11.929688 11.9375-18.5 27.808594-18.5 44.679688v63.199219h512v-63.199219c0-16.871094-6.570312-32.742188-18.511719-44.691406zm0 0" fill="#725d57"/><path d="m512 143.53125v63.199219h-256v-126.402344h192.800781c16.871094 0 32.75 6.570313 44.6875 18.511719 11.941407 11.949218 18.511719 27.820312 18.511719 44.691406zm0 0" fill="#68544f"/><g fill="#922338"><path d="m272.070312 351.328125h144.601563c8.277344 0 15-6.707031 15-15 0-8.277344-6.722656-15-15-15h-144.601563c-8.289062 0-15 6.722656-15 15 0 8.292969 6.710938 15 15 15zm0 0"/><path d="m272.070312 415.601562h72.300782c8.277344 0 15-6.722656 15-15 0-8.28125-6.722656-15-15-15h-72.300782c-8.289062 0-15 6.71875-15 15 0 8.277344 6.710938 15 15 15zm0 0"/><path d="m272.070312 287.070312h144.601563c8.277344 0 15-6.71875 15-15 0-8.289062-6.722656-15-15-15h-144.601563c-8.289062 0-15 6.710938-15 15 0 8.28125 6.710938 15 15 15zm0 0"/></g><path d="m79.269531 445.601562h112.460938c8.289062 0 15-6.722656 15-15v-8.03125c0-19.03125-7.410157-36.921874-20.859375-50.378906-13.449219-13.453125-31.339844-20.863281-50.371094-20.863281s-36.921875 7.410156-50.371094 20.863281c-13.449218 13.457032-20.859375 31.347656-20.859375 50.378906v8.03125c0 8.277344 6.710938 15 15 15zm0 0" fill="#b32445"/><path d="m190.671875 296.171875c0-30.421875-24.75-55.171875-55.171875-55.171875s-55.171875 24.75-55.171875 55.171875c0 30.417969 24.75 55.15625 55.171875 55.15625s55.171875-24.738281 55.171875-55.15625zm0 0" fill="#ffd1a7"/><path d="m256 0c-27.164062 0-49.265625 22.101562-49.265625 49.265625v54.101563c0 5.019531 4.082031 9.101562 9.097656 9.101562h80.332031c5.019532 0 9.101563-4.082031 9.101563-9.101562v-54.101563c0-27.164063-22.101563-49.265625-49.265625-49.265625zm0 64.265625c-8.28125 0-15-6.71875-15-15 0-8.277344 6.71875-15 15-15s15 6.722656 15 15c0 8.28125-6.71875 15-15 15zm0 0" fill="#fdbf00" fill-rule="evenodd"/><path d="m256 0v34.269531c8.28125 0 15 6.71875 15 15s-6.71875 15-15 15v48.199219h40.171875c5.007813 0 9.097656-4.089844 9.097656-9.097656v-54.101563c0-27.167969-22.097656-49.269531-49.269531-49.269531zm0 0" fill="#ff9f00" fill-rule="evenodd"/></svg>