<svg id="Layer_1" enable-background="new 0 0 512.018 512.018" height="512" viewBox="0 0 512.018 512.018" width="512" xmlns="http://www.w3.org/2000/svg"><g><path d="m496.009 64.018v336c0 17.65-14.35 32-32 32h-416c-17.65 0-32-14.35-32-32v-336c0-17.65 14.35-32 32-32h416c17.65 0 32 14.35 32 32z" fill="#e2e0e0"/><path d="m496.009 64.018v336c0 17.65-14.35 32-32 32h-48c17.65 0 32-14.35 32-32v-336c0-17.65-14.35-32-32-32h48c17.65 0 32 14.35 32 32z" fill="#cecccc"/><path d="m496.009 64.018v56c0 4.42-3.58 8-8 8h-464c-4.42 0-8-3.58-8-8v-56c0-17.65 14.35-32 32-32h416c17.65 0 32 14.35 32 32z" fill="#f79caf"/><path d="m496.009 64.018v56c0 4.42-3.58 8-8 8h-48c4.42 0 8-3.58 8-8v-56c0-17.65-14.35-32-32-32h48c17.65 0 32 14.35 32 32z" fill="#e3889b"/><path d="m136.009 24.018v40c0 13.23-10.77 24-24 24s-24-10.77-24-24v-40c0-13.23 10.77-24 24-24s24 10.77 24 24z" fill="#f3d4b7"/><path d="m136.009 24.018v40c0 18.576-20.252 29.96-36 20.77 7.17-4.15 12-11.91 12-20.77v-40c0-8.86-4.83-16.62-12-20.77 15.754-9.194 36 2.199 36 20.77z" fill="#e1c3a7"/><path d="m424.009 24.018v40c0 13.23-10.77 24-24 24s-24-10.77-24-24v-40c0-13.23 10.77-24 24-24s24 10.77 24 24z" fill="#f3d4b7"/><path d="m424.009 24.018v40c0 18.576-20.252 29.96-36 20.77 7.17-4.15 12-11.91 12-20.77v-40c0-8.86-4.83-16.62-12-20.77 15.754-9.194 36 2.199 36 20.77z" fill="#e1c3a7"/><path d="m183.379 432.018c22.21-25.38 19.24-21.99 35-40h-18.37c-6.98 0-10.6-8.35-5.86-13.44 25.29-27.23 21.68-23.35 39.52-42.56h-8.33c-6.73 0-10.46-7.83-6.2-13.05l53.88-66.12-11.89 6.25c-5.84 3.08-12.73-1.91-11.6-8.43l4.36-25.48-18.5-18.04c-4.74-4.61-2.13-12.7 4.43-13.64l25.58-3.72 11.44-23.18c2.91-5.94 11.43-5.94 14.34 0l11.44 23.18 25.58 3.72c6.51.93 9.21 8.99 4.43 13.64l-18.5 18.04 4.36 25.48c.85 4.92-2.97 9.35-7.88 9.35-2.19 0-1.63.25-15.58-7.13l53.85 66.08c4.25 5.21.53 13.05-6.2 13.05h-8.33c35.59 38.33 34.65 37.31 39.52 42.56 4.74 5.09 1.12 13.44-5.86 13.44h-18.37c15.18 17.35 13.75 15.72 35 40z" fill="#cecccc"/><path d="m280.009 448.018v56c0 4.42-3.58 8-8 8h-32c-4.42 0-8-3.58-8-8v-56c0-4.42 3.58-8 8-8h32c4.42 0 8 3.58 8 8z" fill="#b59f89"/><path d="m280.009 448.018v56c0 4.42-3.58 8-8 8h-16c4.42 0 8-3.58 8-8v-56c0-4.42-3.58-8-8-8h16c4.42 0 8 3.58 8 8z" fill="#a18b76"/><path d="m360.009 512.018h-208c-4.418 0-8-3.582-8-8s3.582-8 8-8h208c4.418 0 8 3.582 8 8s-3.582 8-8 8z" fill="#a18b76"/><path d="m360.009 456.018h-208c-6.871 0-10.54-8.117-6.02-13.27 38.249-43.712 23.492-26.846 56-64 2.91-3.32 7.96-3.66 11.29-.75 3.32 2.91 82.14 2.91 85.46 0 3.33-2.91 8.38-2.57 11.29.75 31.328 35.805 19.1 21.83 56 64 4.515 5.148.858 13.27-6.02 13.27z" fill="#acebe2"/><path d="m360.009 456.018h-40c6.88 0 10.54-8.12 6.02-13.27-36.45-41.66-24.96-28.52-54.87-62.71 14.5-.27 26.34-.95 27.58-2.04 3.33-2.91 8.38-2.57 11.29.75 31.33 35.81 19.1 21.83 56 64 4.52 5.15.86 13.27-6.02 13.27z" fill="#98d7ce"/><path d="m335.639 408.018h-159.26l25.61-29.27c2.91-3.32 7.96-3.66 11.29-.75 3.32 2.91 82.14 2.91 85.46 0 3.33-2.91 8.38-2.57 11.29.75z" fill="#98d7ce"/><path d="m340.009 392.018h-168c-6.978 0-10.599-8.352-5.86-13.44 29.983-32.29 19.347-20.837 52-56 3-3.24 8.07-3.43 11.3-.42 3.24 3 49.88 3 53.12 0 3.23-3.01 8.3-2.82 11.3.42 48.341 52.059 46.615 50.201 52 56 4.737 5.087 1.12 13.44-5.86 13.44z" fill="#acebe2"/><path d="m340.009 392.018h-44c6.98 0 10.6-8.35 5.86-13.44-5.32-5.73-3.7-3.98-50.33-54.21 13.79.21 29.22-.53 31.03-2.21 3.23-3.01 8.3-2.82 11.3.42 48.34 52.06 46.62 50.2 52 56 4.74 5.09 1.12 13.44-5.86 13.44z" fill="#98d7ce"/><path d="m320.519 351.278c-4.088 1.06 4.729.74-123.18.74-1.99 0-3.96-.25-5.85-.73l26.66-28.71c3-3.24 8.07-3.43 11.3-.42 3.24 3 49.88 3 53.12 0 3.23-3.01 8.3-2.82 11.3.42z" fill="#98d7ce"/><path d="m314.679 336.018h-117.34c-6.726 0-10.457-7.834-6.2-13.05l58.67-72c3.201-3.938 9.208-3.928 12.4 0l58.67 72c4.252 5.211.532 13.05-6.2 13.05z" fill="#acebe2"/><path d="m314.679 336.018h-42.56c6.73 0 10.45-7.84 6.2-13.05l-43.59-53.49 15.08-18.51c3.2-3.94 9.21-3.93 12.4 0l58.67 72c4.25 5.21.53 13.05-6.2 13.05z" fill="#98d7ce"/><path d="m304.629 211.148-18.5 18.04 4.36 25.48c.852 4.917-2.971 9.35-7.88 9.35-2.653 0-1.25.379-26.6-12.95l-22.88 12.03c-5.844 3.085-12.73-1.91-11.6-8.43l4.36-25.48-18.5-18.04c-4.742-4.612-2.128-12.704 4.43-13.64l25.58-3.72 11.44-23.18c2.913-5.935 11.426-5.936 14.34 0l11.44 23.18 25.58 3.72c6.51.929 9.207 8.994 4.43 13.64z" fill="#f8e9d2"/><path d="m304.629 211.148-18.5 18.04 4.36 25.48c.852 4.917-2.971 9.35-7.88 9.35-2.653 0-1.25.379-26.6-12.95l-.92.48c13-24.69 11.645-62.328-3.11-84.3 3.885-2.318 9.125-.867 11.2 3.36l11.44 23.18 25.58 3.72c6.51.929 9.207 8.994 4.43 13.64z" fill="#e4d5c1"/></g></svg>