<svg id="Capa_1" enable-background="new 0 0 512 512" height="512" viewBox="0 0 512 512" width="512" xmlns="http://www.w3.org/2000/svg"><g><path d="m471.16 512h-430.324c-10.282 0-18.617-8.335-18.617-18.617v-474.766c0-10.282 8.335-18.617 18.617-18.617h430.324c10.282 0 18.617 8.335 18.617 18.617v474.765c0 10.283-8.335 18.618-18.617 18.618z" fill="#c8effe"/><path d="m489.781 18.619v474.762c0 10.279-8.337 18.616-18.626 18.616h-20.559c10.29 0 18.626-8.337 18.626-18.616v-474.762c0-10.279-8.337-18.616-18.626-18.616h20.559c10.29 0 18.626 8.337 18.626 18.616z" fill="#99e6fc"/><g fill="#48d6f7"><path d="m62.234 131.911c4.143 0 7.5-3.358 7.5-7.5v-19.402l15.718 22.76c2.089 3.019 5.747 4.341 9.101 3.296 3.459-1.081 5.693-4.268 5.693-8.193l-.406-42.075c-.04-4.118-3.39-7.428-7.498-7.428-.025 0-.05 0-.074 0-4.142.04-7.468 3.43-7.428 7.572l.192 19.822-16.626-24.075c-1.865-2.702-5.267-3.875-8.404-2.898-3.133.977-5.268 3.878-5.268 7.16v43.461c0 4.142 3.358 7.5 7.5 7.5z"/><path d="m131.746 131.911h.876c12.715 0 22.675-9.656 22.675-21.982v-29.673c0-4.142-3.357-7.5-7.5-7.5s-7.5 3.358-7.5 7.5v29.673c0 4.583-3.861 6.982-7.675 6.982h-.876c-3.813 0-7.674-2.398-7.674-6.982v-29.673c0-4.142-3.357-7.5-7.5-7.5s-7.5 3.358-7.5 7.5v29.673c0 12.326 9.96 21.982 22.674 21.982z"/><path d="m436.758 116.911c-3.714 0-7.267-1.475-9.505-3.944-2.782-3.071-7.526-3.301-10.594-.521-3.069 2.782-3.303 7.524-.521 10.594 5.109 5.638 12.625 8.872 20.62 8.872 10.127 0 18.646-6.54 20.254-15.55 1.871-10.477-6.321-17.461-13.905-20.259-4.92-1.814-9.526-3.783-11.322-4.564-.114-.148-.206-.379-.154-.738.11-.771.827-1.411 1.967-1.754 4.964-1.495 9.763 2.208 9.97 2.371 3.17 2.614 7.861 2.191 10.512-.961 2.665-3.171 2.256-7.902-.915-10.567-4.034-3.391-13.607-8.304-23.893-5.205-6.758 2.035-11.543 7.394-12.489 13.985-.44 3.065-.007 6.233 1.3 9.044 1.349 2.902 3.707 5.792 6.799 7.177.252.113 6.267 2.791 13.035 5.287 2.741 1.011 4.521 2.471 4.329 3.549-.239 1.334-2.279 3.184-5.488 3.184z"/><path d="m390.058 131.911c4.143 0 7.5-3.358 7.5-7.5v-25.891c.029-.178.414-2.003 4.504-6.308 1.672-1.759 3.163-2.803 3.903-3.269 3.506-2.206 4.56-6.836 2.354-10.342-2.207-3.507-6.836-4.56-10.343-2.354-.412.259-.881.57-1.393.933-1.288-2.274-3.725-3.811-6.526-3.811-4.143 0-7.5 3.358-7.5 7.5v43.542c.001 4.142 3.358 7.5 7.501 7.5z"/><path d="m173.43 131.911c4.143 0 7.5-3.358 7.5-7.5 0 0 .004-22.628.004-22.66.001-3.621.619-8.04 3.395-10.656 2.332-2.198 5.638-2.462 8.094-.247 2.372 2.139 2.316 5.871 2.403 8.866.011.395.013 24.697.013 24.697 0 4.142 3.357 7.5 7.5 7.5s7.5-3.358 7.5-7.5l.012-25.604c.002-9.784 5.343-9.784 7.354-9.784 2.145 0 3.586.371 4.284 1.101.681.711 2.222 3.274 1.844 11.679-.005.112-.008.225-.008.337v22.271c0 4.142 3.357 7.5 7.5 7.5s7.5-3.358 7.5-7.5v-22.106c.455-10.628-1.451-17.795-5.993-22.546-3.639-3.806-8.728-5.736-15.127-5.736-5.724 0-10.589 1.735-14.308 4.862-3.996-3.928-9.127-5.087-13.771-5.087-3.565 0-6.845.79-9.752 2.241-1.371-1.782-3.519-2.936-5.942-2.936-4.143 0-7.5 3.358-7.5 7.5v43.808c-.002 4.142 3.355 7.5 7.498 7.5z"/><path d="m318.029 102.698c.032 16.113 13.149 29.213 29.27 29.213 3.273 0 6.394-.542 9.274-1.613 3.883-1.442 5.86-5.759 4.418-9.642-1.441-3.883-5.759-5.865-9.643-4.418-1.203.447-2.565.673-4.05.673-4.823 0-9.087-2.411-11.672-6.085 0 0 28.717.056 28.796.056 6.019.01 7.5-5.655 7.5-10.526 0-14.88-12.106-26.986-26.986-26.986-16.603-.001-26.937 13.927-26.907 29.328zm26.908-14.329c5.022 0 9.333 3.105 11.114 7.497l-22.203-.043c1.797-4.37 6.09-7.454 11.089-7.454z"/><path d="m256.523 131.911c2.948 0 5.491-1.705 6.717-4.179 4.402 2.651 9.552 4.179 15.054 4.179 16.14 0 29.271-13.131 29.271-29.271s-13.131-29.271-29.271-29.271c-5.18 0-10.046 1.358-14.271 3.728v-17.613c0-4.142-3.357-7.5-7.5-7.5s-7.5 3.358-7.5 7.5v64.927c0 4.142 3.358 7.5 7.5 7.5zm21.772-43.542c7.869 0 14.271 6.402 14.271 14.271s-6.401 14.271-14.271 14.271-14.271-6.402-14.271-14.271 6.402-14.271 14.271-14.271z"/><path d="m451.802 156.546h-391.604c-4.143 0-7.5 3.358-7.5 7.5s3.357 7.5 7.5 7.5h391.604c4.143 0 7.5-3.358 7.5-7.5s-3.358-7.5-7.5-7.5z"/><path d="m331.453 349.081h-52.776c-4.143 0-7.5 3.358-7.5 7.5s3.357 7.5 7.5 7.5h41.287l-37.549 85.416c-1.667 3.792.056 8.217 3.848 9.884.982.432 2.007.636 3.015.636 2.885 0 5.635-1.674 6.87-4.484l42.172-95.934c1.02-2.319.799-4.996-.586-7.118s-3.748-3.4-6.281-3.4z"/><path d="m419.91 395.858c4.712-4.972 7.612-11.678 7.612-19.053 0-15.288-12.438-27.725-27.725-27.725-15.288 0-27.726 12.438-27.726 27.725 0 7.375 2.9 14.081 7.612 19.053-9.136 6.374-15.129 16.954-15.129 28.914 0 19.432 15.81 35.242 35.242 35.242s35.241-15.81 35.241-35.242c.002-11.959-5.991-22.539-15.127-28.914zm-32.838-19.052c0-7.017 5.709-12.725 12.726-12.725s12.725 5.708 12.725 12.725-5.708 12.725-12.725 12.725-12.726-5.709-12.726-12.725zm12.726 68.208c-11.161 0-20.242-9.081-20.242-20.242s9.081-20.242 20.242-20.242 20.241 9.081 20.241 20.242-9.08 20.242-20.241 20.242z"/><path d="m121.652 316.648c4.143 0 7.5-3.358 7.5-7.5v-95.709c0-4.142-3.357-7.5-7.5-7.5h-20.457c-4.143 0-7.5 3.358-7.5 7.5s3.357 7.5 7.5 7.5h12.957v88.209c0 4.142 3.358 7.5 7.5 7.5z"/><path d="m111.424 386.469c-4.135 0-7.511.279-10.491.807l4.05-24.446h29.601c4.143 0 7.5-3.358 7.5-7.5s-3.357-7.5-7.5-7.5h-35.96c-3.669 0-6.8 2.654-7.399 6.274l-7.123 42.997c-.462 2.792.697 5.601 2.98 7.272 2.284 1.671 5.325 1.911 7.847.624 5.129-2.617 10.698-3.528 16.496-3.528 6.025 0 11.632 2.411 15.788 6.788 4.153 4.374 6.268 10.111 5.954 16.153-.588 11.323-9.939 20.372-21.29 20.6-12.062.243-22.225-9.718-22.225-21.768 0-4.142-3.357-7.5-7.5-7.5s-7.5 3.358-7.5 7.501c.002 18.003 13.587 33.782 31.445 36.386 1.764.257 3.547.385 5.33.385.249 0 .502-.002.752-.007 19.174-.386 34.974-15.681 35.968-34.819.528-10.191-3.043-19.873-10.057-27.259-6.915-7.283-16.634-11.46-26.666-11.46z"/><path d="m429.849 275.455h-4.688c.144-23.598.237-50.507-.049-53.95-.524-6.29-4.207-11.389-9.383-12.992-2.441-.757-8.767-1.728-14.723 5.581-5.404 6.631-32.457 55.508-37.826 65.238-1.281 2.324-1.24 5.151.109 7.436s3.805 3.687 6.458 3.687h40.313c-.052 7.331-.107 14.4-.162 20.684-.035 4.142 3.293 7.528 7.436 7.564h.065c4.112 0 7.463-3.315 7.499-7.436.021-2.471.089-10.5.163-20.813h4.788c4.143 0 7.5-3.358 7.5-7.5s-3.358-7.499-7.5-7.499zm-19.691 0h-27.677c10.026-17.997 22.298-39.64 27.781-48.37.087 8.625.017 28.186-.104 48.37z"/><path d="m239.345 241.886c2.016-8.92-1.548-20.539-7.83-27.233-6.011-6.405-14.535-10.115-23.322-10.115-15.252 0-28.453 10.849-31.39 25.797-.799 4.064 1.849 8.007 5.913 8.805 4.067.796 8.007-1.85 8.806-5.914 1.559-7.932 8.569-13.689 16.671-13.689 9.223 0 16.753 7.387 16.984 16.556.178 7.12-5.405 15.068-9.287 20.614-15.199 21.716-24.273 33.598-29.148 39.981-5.904 7.732-7.687 10.065-6.343 14.433.765 2.486 2.659 4.397 5.196 5.243 1.027.343 37.582.706 51.239.535 4.142-.052 7.457-3.452 7.404-7.594s-3.448-7.495-7.594-7.405c-12.453.157-25.793.243-35.178.213 5.343-7.037 13.873-18.46 26.712-36.804 5.053-7.219 9.242-14.906 11.167-23.423z"/><path d="m305.064 303.703c-8.43 0-15.663-6.282-16.825-14.608-.109-.786-.165-1.588-.165-2.382 0-4.142-3.357-7.5-7.5-7.5s-7.5 3.358-7.5 7.5c0 1.483.104 2.98.309 4.452 2.19 15.699 15.812 27.538 31.682 27.538 17.64 0 31.991-14.351 31.991-31.99 0-9.821-4.452-18.617-11.439-24.49 6.987-5.873 11.439-14.67 11.439-24.491 0-17.64-14.352-31.99-31.991-31.99-15.252 0-28.453 10.85-31.39 25.798-.799 4.064 1.849 8.007 5.913 8.805 4.065.799 8.007-1.849 8.806-5.914 1.559-7.932 8.569-13.689 16.671-13.689 9.369 0 16.991 7.622 16.991 16.99s-7.622 16.991-16.991 16.991c-4.143 0-7.5 3.358-7.5 7.5s3.357 7.5 7.5 7.5c9.369 0 16.991 7.622 16.991 16.99s-7.622 16.99-16.992 16.99z"/><path d="m210.451 388.41c-3.696 0-7.26.577-10.609 1.639 9.224-17.815 21.594-27.326 21.776-27.463 3.308-2.476 3.991-7.163 1.523-10.48-2.473-3.324-7.172-4.014-10.493-1.542-6.371 4.742-11.851 10.991-16.597 17.299-12.075 16.047-20.777 35.383-20.777 55.725 0 19.396 15.78 35.177 35.177 35.177s35.177-15.78 35.177-35.177c0-19.398-15.78-35.178-35.177-35.178zm0 55.354c-11.126 0-20.177-9.051-20.177-20.177s9.051-20.177 20.177-20.177 20.177 9.051 20.177 20.177c0 11.125-9.051 20.177-20.177 20.177z"/></g></g></svg>