<svg height="512" viewBox="0 0 128 128" width="512" xmlns="http://www.w3.org/2000/svg"><g><path d="m1.75 31.003h124.5v82.494h-124.5z" fill="#eff4f9"/><path d="m126.25 31h-124.5v-10.5a6 6 0 0 1 6-6h112.5a6 6 0 0 1 6 6z" fill="#54528e"/><g fill="#2fe6a9"><path d="m14.375 24.5h-4.75a1.75 1.75 0 0 1 0-3.5h4.75a1.75 1.75 0 0 1 0 3.5z"/><path d="m26.375 24.5h-4.75a1.75 1.75 0 0 1 0-3.5h4.75a1.75 1.75 0 0 1 0 3.5z"/><path d="m38.375 24.5h-4.75a1.75 1.75 0 0 1 0-3.5h4.75a1.75 1.75 0 0 1 0 3.5z"/></g><path d="m116.242 24.5h-64.242a1.75 1.75 0 0 1 0-3.5h64.242a1.75 1.75 0 0 1 0 3.5z" fill="#c4e6fe"/><circle cx="64" cy="72.25" fill="#2fe6a9" r="28"/><path d="m76.189 61.888h13.822a27.844 27.844 0 0 0 -1.687-3.5h-12.782c-1.36-6.226-3.64-11.045-6.483-13.673a27.752 27.752 0 0 0 -10.118 0c-2.843 2.628-5.123 7.447-6.483 13.673h-12.782a27.844 27.844 0 0 0 -1.687 3.5h13.822a68 68 0 0 0 -.727 8.612h-15.024c-.036.579-.06 1.162-.06 1.75s.024 1.171.06 1.75h15.024a68 68 0 0 0 .727 8.612h-13.822a27.844 27.844 0 0 0 1.687 3.5h12.782c1.36 6.226 3.64 11.045 6.483 13.673a27.752 27.752 0 0 0 10.118 0c2.843-2.628 5.123-7.447 6.483-13.673h12.782a27.844 27.844 0 0 0 1.687-3.5h-13.822a68 68 0 0 0 .727-8.612h15.024c.036-.579.06-1.162.06-1.75s-.024-1.171-.06-1.75h-15.024a68 68 0 0 0 -.727-8.612zm-12.189-15.888c2.952 0 6.126 4.718 7.938 12.388h-15.876c1.811-7.67 4.986-12.388 7.938-12.388zm0 52.5c-2.952 0-6.127-4.718-7.938-12.388h15.876c-1.812 7.67-4.986 12.388-7.938 12.388zm8.632-15.888h-17.264a63.3 63.3 0 0 1 -.782-8.612h18.828a63.3 63.3 0 0 1 -.782 8.612zm-18.046-12.112a63.3 63.3 0 0 1 .782-8.612h17.264a63.3 63.3 0 0 1 .782 8.612z" fill="#26bfb8"/></g></svg>