<svg id="Capa_1" enable-background="new 0 0 512 512" height="512" viewBox="0 0 512 512" width="512" xmlns="http://www.w3.org/2000/svg"><g><g><path d="m492.747 474.15h-473.494c-6.497 0-11.764-5.267-11.764-11.764v-412.772c0-6.497 5.267-11.764 11.764-11.764h473.494c6.497 0 11.764 5.267 11.764 11.764v412.771c0 6.498-5.267 11.765-11.764 11.765z" fill="#f9f7f8"/></g><g><path d="m504.511 108.784h-497.023v-59.17c0-6.497 5.267-11.764 11.764-11.764h473.494c6.497 0 11.764 5.267 11.764 11.764v59.17z" fill="#fe99a0"/></g><g><path d="m504.514 49.613v412.775c0 6.5-5.272 11.762-11.762 11.762h-19.97c6.49 0 11.762-5.262 11.762-11.762v-412.775c0-6.5-5.272-11.762-11.762-11.762h19.97c6.489-.001 11.762 5.261 11.762 11.762z" fill="#efedef"/></g><g><path d="m504.514 49.613v59.17h-19.97v-59.17c0-6.5-5.272-11.762-11.762-11.762h19.97c6.489-.001 11.762 5.261 11.762 11.762z" fill="#fd8087"/></g><g><path d="m504.511 352.001c4.136 0 7.489-3.353 7.489-7.489v-294.898c0-10.616-8.637-19.253-19.253-19.253h-350.687c-4.136 0-7.489 3.353-7.489 7.489s3.353 7.489 7.489 7.489h350.687c2.358 0 4.276 1.918 4.276 4.276v51.681h-482.046v-51.682c0-2.358 1.918-4.276 4.276-4.276h87.847c4.136 0 7.489-3.353 7.489-7.489s-3.353-7.489-7.489-7.489h-87.847c-10.616.001-19.253 8.638-19.253 19.254v412.771c0 10.616 8.637 19.253 19.253 19.253h473.494c10.616 0 19.253-8.637 19.253-19.253v-83.54c0-4.136-3.353-7.489-7.489-7.489s-7.489 3.353-7.489 7.489v83.54c0 2.358-1.918 4.276-4.276 4.276h-473.493c-2.358 0-4.276-1.918-4.276-4.276v-346.112h482.045v228.24c.001 4.135 3.353 7.488 7.489 7.488z"/><path d="m149.3 189.408h-30.629c-4.136 0-7.489 3.353-7.489 7.489s3.353 7.489 7.489 7.489h30.629c4.136 0 7.489-3.353 7.489-7.489-.001-4.136-3.353-7.489-7.489-7.489z"/><path d="m149.3 226.724h-106.863c-4.136 0-7.489 3.353-7.489 7.489s3.353 7.489 7.489 7.489h106.863c4.136 0 7.489-3.353 7.489-7.489-.001-4.136-3.353-7.489-7.489-7.489z"/><path d="m149.3 264.04h-106.863c-4.136 0-7.489 3.353-7.489 7.489s3.353 7.489 7.489 7.489h106.863c4.136 0 7.489-3.353 7.489-7.489-.001-4.136-3.353-7.489-7.489-7.489z"/><path d="m41.107 203.908c4.07.732 7.965-1.969 8.7-6.04l3.22-17.843 5.395 18.284c.026.089.054.178.084.266 1.169 3.48 4.412 5.81 8.08 5.81h.045c3.686-.019 6.927-2.387 8.064-5.894.028-.085.054-.172.079-.258l5.206-18.26 3.434 17.971c.776 4.063 4.7 6.728 8.761 5.95 4.063-.776 6.726-4.699 5.95-8.761l-8.553-44.751c-.772-3.791-4.01-6.592-7.872-6.81-3.875-.232-7.395 2.199-8.589 5.88-.028.086-.054.172-.079.258l-6.552 22.983-6.802-23.056c-.026-.089-.054-.177-.083-.264-1.232-3.669-4.797-6.06-8.65-5.793-3.862.258-7.07 3.093-7.818 6.98l-8.059 44.648c-.735 4.07 1.969 7.965 6.039 8.7z"/><path d="m469.562 189.408h-30.628c-4.136 0-7.489 3.353-7.489 7.489s3.353 7.489 7.489 7.489h30.628c4.136 0 7.489-3.353 7.489-7.489s-3.353-7.489-7.489-7.489z"/><path d="m469.562 226.724h-106.862c-4.136 0-7.489 3.353-7.489 7.489s3.353 7.489 7.489 7.489h106.862c4.136 0 7.489-3.353 7.489-7.489s-3.353-7.489-7.489-7.489z"/><path d="m469.562 264.04h-106.862c-4.136 0-7.489 3.353-7.489 7.489s3.353 7.489 7.489 7.489h106.862c4.136 0 7.489-3.353 7.489-7.489s-3.353-7.489-7.489-7.489z"/><path d="m371.938 204.385h.059c3.625-.025 6.844-2.347 8.011-5.78.022-.065.043-.131.063-.196l6.791-21.939 6.76 21.943c.031.102.065.203.1.304 1.208 3.397 4.43 5.669 8.031 5.669h.059c3.625-.025 6.844-2.347 8.011-5.78.105-.31 9.223-46.012 9.223-46.012.807-4.056-1.827-7.999-5.883-8.807-4.058-.807-7.999 1.827-8.806 5.883l-3.956 19.878-6.379-20.705c-1.217-3.953-5.41-6.168-9.361-4.952-2.635.812-4.492 2.948-5.081 5.451l-6.256 20.213-3.948-19.96c-.802-4.058-4.746-6.697-8.799-5.893-4.057.802-6.696 4.742-5.893 8.799 0 0 9.101 45.872 9.223 46.217 1.207 3.395 4.429 5.667 8.031 5.667z"/><path d="m149.3 349.766h-30.629c-4.136 0-7.489 3.353-7.489 7.489s3.353 7.489 7.489 7.489h30.629c4.136 0 7.489-3.353 7.489-7.489-.001-4.136-3.353-7.489-7.489-7.489z"/><path d="m149.3 387.082h-106.863c-4.136 0-7.489 3.353-7.489 7.489s3.353 7.489 7.489 7.489h106.863c4.136 0 7.489-3.353 7.489-7.489-.001-4.136-3.353-7.489-7.489-7.489z"/><path d="m149.3 424.398h-106.863c-4.136 0-7.489 3.353-7.489 7.489s3.353 7.489 7.489 7.489h106.863c4.136 0 7.489-3.353 7.489-7.489-.001-4.136-3.353-7.489-7.489-7.489z"/><path d="m66.552 364.743c4.136 0 7.489-3.353 7.489-7.489v-38.36h5.223c4.136 0 7.489-3.353 7.489-7.489s-3.353-7.489-7.489-7.489h-25.32c-4.136 0-7.489 3.353-7.489 7.489s3.353 7.489 7.489 7.489h5.12v38.36c-.001 4.136 3.352 7.489 7.488 7.489z"/><path d="m309.431 349.766h-30.629c-4.136 0-7.489 3.353-7.489 7.489s3.353 7.489 7.489 7.489h30.629c4.136 0 7.489-3.353 7.489-7.489s-3.353-7.489-7.489-7.489z"/><path d="m309.431 387.082h-106.862c-4.136 0-7.489 3.353-7.489 7.489s3.353 7.489 7.489 7.489h106.863c4.136 0 7.489-3.353 7.489-7.489-.001-4.136-3.354-7.489-7.49-7.489z"/><path d="m309.431 424.398h-106.862c-4.136 0-7.489 3.353-7.489 7.489s3.353 7.489 7.489 7.489h106.863c4.136 0 7.489-3.353 7.489-7.489-.001-4.136-3.354-7.489-7.49-7.489z"/><path d="m235.958 319.23c4.136 0 7.489-3.353 7.489-7.489s-3.353-7.489-7.489-7.489h-18.447c-4.136 0-7.489 3.353-7.489 7.489v45.513c0 4.136 3.353 7.489 7.489 7.489s7.489-3.353 7.489-7.489v-15.699h9.493c4.136 0 7.489-3.353 7.489-7.489s-3.353-7.489-7.489-7.489h-9.493v-7.348h10.958z"/><path d="m469.562 349.766h-30.628c-4.136 0-7.489 3.353-7.489 7.489s3.353 7.489 7.489 7.489h30.628c4.136 0 7.489-3.353 7.489-7.489s-3.353-7.489-7.489-7.489z"/><path d="m469.562 387.082h-106.862c-4.136 0-7.489 3.353-7.489 7.489s3.353 7.489 7.489 7.489h106.862c4.136 0 7.489-3.353 7.489-7.489s-3.353-7.489-7.489-7.489z"/><path d="m469.562 424.398h-106.862c-4.136 0-7.489 3.353-7.489 7.489s3.353 7.489 7.489 7.489h106.862c4.136 0 7.489-3.353 7.489-7.489s-3.353-7.489-7.489-7.489z"/><path d="m387.956 349.766c-4.069 0-7.968-1.621-10.429-4.337-2.777-3.063-7.513-3.298-10.578-.52s-3.297 7.513-.52 10.578c5.331 5.882 13.177 9.256 21.526 9.256 10.515 0 19.356-6.775 21.023-16.109 1.266-7.093-1.865-16.326-14.45-20.968-5.316-1.961-10.287-4.09-12.128-4.892-.303-.317-.42-.732-.348-1.237.144-1.005 1.024-1.822 2.414-2.241 5.517-1.661 10.801 2.439 11.003 2.599 3.166 2.613 7.853 2.19 10.499-.958 2.661-3.166 2.252-7.89-.914-10.551-4.208-3.536-14.19-8.66-24.907-5.431-6.992 2.106-11.942 7.644-12.92 14.453-.923 6.431 1.866 12.618 7.28 16.147.331.215.678.405 1.039.566.268.119 6.633 2.953 13.798 5.596 2.447.902 5.196 2.566 4.889 4.284-.269 1.519-2.452 3.765-6.277 3.765z"/><path d="m309.431 189.408h-30.629c-4.136 0-7.489 3.353-7.489 7.489s3.353 7.489 7.489 7.489h30.629c4.136 0 7.489-3.353 7.489-7.489s-3.353-7.489-7.489-7.489z"/><path d="m309.431 226.724h-106.862c-4.136 0-7.489 3.353-7.489 7.489s3.353 7.489 7.489 7.489h106.863c4.136 0 7.489-3.353 7.489-7.489-.001-4.136-3.354-7.489-7.49-7.489z"/><path d="m309.431 264.04h-106.862c-4.136 0-7.489 3.353-7.489 7.489s3.353 7.489 7.489 7.489h106.863c4.136 0 7.489-3.353 7.489-7.489-.001-4.136-3.354-7.489-7.49-7.489z"/><path d="m226.683 204.385c4.136 0 7.489-3.353 7.489-7.489v-38.361h5.223c4.136 0 7.489-3.353 7.489-7.489s-3.353-7.489-7.489-7.489h-25.321c-4.136 0-7.489 3.353-7.489 7.489s3.353 7.489 7.489 7.489h5.12v38.361c0 4.136 3.353 7.489 7.489 7.489z"/></g></g></svg>