<svg id="Layer_1" enable-background="new 0 0 256 256" height="512" viewBox="0 0 256 256" width="512" xmlns="http://www.w3.org/2000/svg"><path d="m96.471 179.274.001-.018-.126.131c.042-.037.082-.076.125-.113z" fill="#a4c9ff"/><path d="m90.528 212.086v-5.136-2.009-.764-11.828c0-4.137 1.45-7.931 3.86-10.918l-9.261 9.666c-.388.405-1.033.412-1.429.015l-18.656-18.656c-.781-.781-2.047-.781-2.828 0l-18.029 18.03c-.781.781-.781 2.047 0 2.828l28.245 28.245.001-.001 6.335 6.335c3.124 3.124 8.19 3.124 11.314 0l.449-.449v-15.358z" fill="#a4c9ff"/><path d="m211.912 190.485-18.029-18.03c-.781-.781-2.047-.781-2.828 0l-18.655 18.655c-.397.397-1.043.389-1.431-.017l-10.495-11.005.001.004c3.122 3.146 5.052 7.475 5.052 12.257v11.828 2.773 5.136 15.316l.49.49c3.124 3.124 8.189 3.124 11.314 0l6.335-6.335.001.001 28.245-28.245c.781-.781.781-2.047 0-2.828z" fill="#a4c9ff"/><path d="m143.119 174.944c-.012-.001-.023-.003-.035-.003l-.002.003h-35.15c-9.612 0-17.404 7.792-17.404 17.404v11.829.764 2.009 5.136 22.856h.423 21.857 52.72v-22.856-5.136-2.773-11.829c0-9.612-7.792-17.404-17.404-17.404z" fill="#a4c9ff"/><path d="m162.634 124.532c-.073 0-.144.009-.217.011v-3.22c0-18.821-15.396-34.079-34.389-34.079-18.992 0-34.389 15.258-34.389 34.079v3.22c-.073-.001-.144-.011-.217-.011-5.794 0-10.492 4.655-10.492 10.397s4.697 10.397 10.492 10.397c.381 0 .756-.023 1.126-.062 3.549 15.076 17.186 26.311 33.481 26.311 16.294 0 29.932-11.234 33.481-26.311.37.039.745.062 1.126.062 5.794 0 10.492-4.655 10.492-10.397-.002-5.742-4.7-10.397-10.494-10.397z" fill="#f9cfcf"/><path d="m110.939 141.33c-2.289 0-4.152-1.862-4.152-4.151v-6.919c0-2.289 1.862-4.151 4.152-4.151 2.289 0 4.151 1.862 4.151 4.151v6.919c0 2.289-1.862 4.151-4.151 4.151z" fill="#3762cc"/><path d="m144.954 141.33c-2.289 0-4.152-1.862-4.152-4.151v-6.919c0-2.289 1.862-4.151 4.152-4.151 2.289 0 4.151 1.862 4.151 4.151v6.919c0 2.289-1.862 4.151-4.151 4.151z" fill="#3762cc"/><path d="m129.597 156.614h-3.139c-.266 0-.519-.052-.751-.146-1.861-.312-3.52-1.13-4.713-2.334-1.197-1.207-1.857-2.739-1.857-4.313 0-1.104.896-2 2-2s2 .896 2 2c0 .656.379 1.176.697 1.497.657.662 1.696 1.118 2.852 1.25.087.01.172.025.256.046h2.177c.082-.021.166-.036.251-.046 1.155-.132 2.194-.588 2.852-1.25.318-.321.697-.84.697-1.497 0-1.104.896-2 2-2s2 .896 2 2c0 1.574-.66 3.106-1.857 4.313-1.201 1.211-2.873 2.032-4.747 2.34-.224.09-.465.14-.718.14z" fill="#3762cc"/><path d="m86.407 65.092c0-22.621-19.12-40.776-42.08-39.186-19.874 1.375-35.751 17.84-36.461 37.749-.424 11.885 4.436 22.64 12.413 30.107 8.003 7.492 15.241 15.762 21.118 25.016l2.612 4.113c1.159 1.825 3.809 1.862 5.019.07l3.884-5.753c5.713-8.464 12.675-15.967 20.306-22.753 8.091-7.195 13.189-17.683 13.189-29.363z" fill="#6bdddd"/><circle cx="47.124" cy="65.092" fill="#ffea92" r="28.05"/><path d="m46.543 126.283c-.023 0-.047 0-.071 0-1.692-.023-3.244-.89-4.151-2.319l-2.613-4.113c-5.438-8.562-12.24-16.618-20.796-24.628-8.716-8.16-13.471-19.691-13.045-31.639.743-20.811 17.576-38.238 38.322-39.673 11.596-.802 22.637 3.102 31.094 10.993 8.34 7.783 13.124 18.786 13.124 30.189 0 11.778-5.052 23.025-13.859 30.857-8.203 7.294-14.738 14.614-19.978 22.377l-3.883 5.753c-.935 1.383-2.479 2.203-4.144 2.203zm.609-98.475c-.891 0-1.787.031-2.687.093-18.731 1.296-33.93 17.033-34.601 35.825-.385 10.791 3.91 21.207 11.781 28.576 8.806 8.244 15.819 16.553 21.44 25.403l2.612 4.113c.252.397.628.461.83.464.213.011.58-.051.843-.44l3.883-5.753c5.429-8.043 12.179-15.609 20.635-23.128 7.955-7.074 12.518-17.231 12.518-27.868 0-10.298-4.32-20.235-11.853-27.265-6.98-6.515-15.915-10.02-25.401-10.02z" fill="#3762cc"/><path d="m248.16 65.092c0-22.621-19.12-40.776-42.08-39.186-19.874 1.376-35.751 17.84-36.461 37.749-.424 11.885 4.436 22.64 12.413 30.107 8.003 7.492 15.241 15.762 21.118 25.016l2.612 4.113c1.159 1.825 3.809 1.862 5.019.07l3.884-5.753c5.713-8.464 12.675-15.967 20.306-22.753 8.091-7.195 13.189-17.683 13.189-29.363z" fill="#6bdddd"/><circle cx="208.877" cy="65.092" fill="#ffea92" r="28.05"/><path d="m208.296 126.283c-.023 0-.047 0-.071 0-1.692-.023-3.244-.89-4.151-2.319l-2.613-4.113c-5.438-8.562-12.24-16.618-20.796-24.628-8.716-8.16-13.471-19.691-13.045-31.639.742-20.811 17.576-38.237 38.322-39.673 11.592-.8 22.638 3.101 31.094 10.993 8.341 7.783 13.124 18.787 13.124 30.189 0 11.777-5.052 23.024-13.859 30.857-8.203 7.294-14.738 14.614-19.978 22.377l-3.883 5.753c-.935 1.383-2.479 2.203-4.144 2.203zm.609-98.475c-.891 0-1.787.031-2.687.093-18.732 1.296-33.93 17.033-34.601 35.825-.385 10.791 3.91 21.207 11.781 28.576 8.806 8.244 15.819 16.553 21.44 25.403l2.612 4.113c.252.397.628.461.83.464.214.011.58-.051.843-.44l3.883-5.753c5.429-8.043 12.179-15.609 20.635-23.128 7.955-7.075 12.518-17.232 12.518-27.868 0-10.298-4.32-20.235-11.853-27.265-6.98-6.515-15.916-10.02-25.401-10.02z" fill="#3762cc"/><path d="m57.075 76.767-1.888-4.962h-16.072l-1.888 5.07c-.737 1.978-1.367 3.313-1.888 4.004-.522.692-1.375 1.039-2.562 1.039-1.007 0-1.897-.369-2.67-1.106s-1.159-1.573-1.159-2.508c0-.54.089-1.096.27-1.672.179-.575.476-1.375.89-2.4l10.113-25.672c.288-.737.634-1.623 1.038-2.656.405-1.034.836-1.892 1.294-2.576.458-.683 1.061-1.236 1.807-1.658s1.667-.634 2.764-.634c1.114 0 2.045.211 2.791.634.746.422 1.348.966 1.807 1.631.458.666.845 1.38 1.16 2.144.314.764.715 1.784 1.2 3.061l10.328 25.511c.809 1.941 1.214 3.353 1.214 4.234 0 .917-.382 1.757-1.146 2.521s-1.685 1.146-2.764 1.146c-.629 0-1.168-.113-1.618-.337-.45-.225-.827-.53-1.133-.917s-.634-.98-.984-1.78c-.351-.799-.652-1.505-.904-2.117zm-15.856-10.975h11.811l-5.96-16.315z" fill="#a4c9ff"/><path d="m211.769 84.859h-12.082c-1.744 0-2.989-.391-3.735-1.173s-1.119-2.027-1.119-3.735v-29.718c0-1.744.382-2.998 1.146-3.762s2-1.146 3.708-1.146h12.81c1.888 0 3.523.117 4.908.351 1.384.234 2.625.683 3.721 1.348.935.558 1.762 1.263 2.481 2.117s1.268 1.798 1.645 2.832.566 2.126.566 3.276c0 3.955-1.978 6.85-5.933 8.684 5.195 1.654 7.793 4.872 7.793 9.654 0 2.211-.566 4.203-1.699 5.974-1.132 1.771-2.661 3.079-4.584 3.923-1.205.504-2.589.859-4.153 1.065-1.562.207-3.388.31-5.473.31zm-8.926-33.52v10.22h7.335c1.996 0 3.537-.188 4.625-.566 1.087-.378 1.919-1.097 2.495-2.158.449-.755.674-1.6.674-2.535 0-1.996-.71-3.321-2.13-3.978-1.42-.656-3.586-.984-6.499-.984h-6.5zm8.333 15.964h-8.333v11.542h8.603c5.411 0 8.117-1.951 8.117-5.852 0-1.996-.701-3.442-2.104-4.341s-3.497-1.349-6.283-1.349z" fill="#f9a7a7"/><path d="m148.405 52.07-.012-.006c2.316-1.774 4.228-4.256 5.407-7.335 3.319-8.661-.347-18.655-8.188-22.321-5.598-2.618-11.808-1.298-16.111 2.822-.865.828-2.269.867-3.153.057-4.226-3.87-10.193-5.13-15.645-2.699-7.891 3.517-11.696 13.407-8.499 22.088 1.137 3.086 3.013 5.59 5.304 7.395l-.012.006 17.227 14.181c1.671 1.375 4.148 1.394 5.841.043z" fill="#f9a7a7"/><path d="m128.028 173.575c-16.442 0-30.61-10.714-35.013-26.256-6.7-.214-12.084-5.69-12.084-12.391 0-6.235 4.663-11.41 10.709-12.271v-1.335c0-19.894 16.324-36.079 36.389-36.079s36.389 16.185 36.389 36.079v1.335c6.046.861 10.709 6.036 10.709 12.271 0 6.701-5.384 12.177-12.084 12.391-4.406 15.542-18.573 26.256-35.015 26.256zm-33.479-30.311c.918 0 1.731.631 1.945 1.542 3.432 14.583 16.399 24.769 31.534 24.769 15.134 0 28.101-10.186 31.534-24.769.231-.98 1.16-1.641 2.157-1.531.301.032.606.05.916.05 4.682 0 8.491-3.767 8.491-8.397 0-4.622-3.795-8.383-8.465-8.397-.053.003-.183.01-.204.01-.541.008-1.057-.196-1.44-.571-.384-.376-.6-.891-.6-1.428v-3.22c0-17.688-14.529-32.079-32.389-32.079s-32.389 14.391-32.389 32.079v3.22c0 .538-.216 1.052-.6 1.428-.384.375-.912.582-1.44.571-.033 0-.166-.007-.199-.01h-.001c-4.661 0-8.469 3.767-8.469 8.396s3.809 8.397 8.491 8.397c.31 0 .615-.019.916-.05.071-.006.142-.01.212-.01z" fill="#3762cc"/><path d="m169.062 118.753h-6.724c.066.848.1 1.705.1 2.57v3.22c.073-.001.144-.011.217-.011 2.717 0 5.185 1.033 7.048 2.712v-8.546c-.208.033-.422.055-.641.055z" fill="#4671c6"/><path d="m120.838 118.697h-35.636c-1.255 0-2.272-1.017-2.272-2.272v-9.093c0-17.134 13.889-31.023 31.023-31.023h16.54c4.705 0 8.519 3.814 8.519 8.519v15.694c0 10.038-8.137 18.175-18.174 18.175z" fill="#4671c6"/><path d="m170.854 118.697h-13.667c-10.038 0-18.175-8.137-18.175-18.175v-15.693c0-4.705 3.814-8.519 8.519-8.519 14.135 0 25.594 11.459 25.594 25.594v14.522c.001 1.254-1.017 2.271-2.271 2.271z" fill="#4671c6"/><path d="m86.478 118.697v8.358c1.837-1.569 4.224-2.524 6.839-2.524.073 0 .144.01.217.011v-3.22c0-.885.044-1.759.113-2.625z" fill="#4671c6"/><path d="m169.705 129.243c-.485 0-.965-.177-1.339-.514-1.572-1.417-3.6-2.197-5.709-2.197-.05.006-.136.013-.217.011-.525 0-1.03-.207-1.405-.576-.381-.376-.595-.889-.595-1.424v-3.22c0-.799-.032-1.612-.094-2.415-.043-.556.147-1.104.526-1.513.378-.409.911-.642 1.468-.642h6.724c.112 0 .221-.014.329-.031.574-.093 1.167.074 1.612.454s.701.936.701 1.521v8.546c0 .79-.465 1.506-1.187 1.827-.263.117-.54.173-.814.173zm-5.267-6.584c1.13.162 2.228.478 3.266.936v-2.842h-3.271c.003.19.005.38.005.57z" fill="#3762cc"/><path d="m120.837 120.697h-35.635c-2.355 0-4.272-1.917-4.272-4.272v-9.093c0-18.209 14.814-33.023 33.023-33.023h16.54c5.8 0 10.519 4.719 10.519 10.52v15.693c0 11.125-9.05 20.175-20.175 20.175zm-6.884-42.387c-16.003 0-29.023 13.02-29.023 29.023v9.093c0 .15.122.272.272.272h35.635c8.919 0 16.175-7.256 16.175-16.175v-15.694c0-3.595-2.924-6.52-6.519-6.52h-16.54z" fill="#3762cc"/><path d="m170.854 120.697h-13.667c-11.125 0-20.175-9.05-20.175-20.175v-15.693c0-5.8 4.719-10.52 10.52-10.52 15.215 0 27.594 12.378 27.594 27.594v14.522c-.001 2.356-1.917 4.272-4.272 4.272zm-23.322-42.387c-3.595 0-6.52 2.925-6.52 6.52v15.693c0 8.919 7.256 16.175 16.175 16.175h13.667c.15 0 .272-.122.272-.272v-14.522c-.001-13.01-10.584-23.594-23.594-23.594z" fill="#3762cc"/><path d="m86.478 129.055c-.284 0-.569-.061-.837-.184-.708-.327-1.163-1.036-1.163-1.816v-8.358c0-1.104.896-2 2-2h7.169c.558 0 1.091.233 1.47.644.378.41.568.959.524 1.516-.072.895-.106 1.702-.106 2.466v3.22c0 .535-.214 1.048-.595 1.424-.381.375-.865.577-1.432.576-.074-.001-.146-.005-.219-.01h-.001c-2 0-3.968.726-5.511 2.044-.37.315-.832.478-1.299.478zm2-8.358v2.808c.977-.409 2.004-.694 3.057-.845v-1.337c0-.206.002-.415.006-.625h-3.063z" fill="#3762cc"/><path d="m128.028 171.575c-5.619 0-10.922-1.337-15.605-3.706v6.311c0 7.315 5.93 13.245 13.245 13.245h4.71c7.315 0 13.245-5.93 13.245-13.245v-6.306c-4.68 2.366-9.979 3.701-15.595 3.701z" fill="#f9cfcf"/><path d="m247.689 166.123c-.234-1.507-1.617-2.561-3.133-2.386l-5.417.624-20.568 1.655c-1.564.126-3.139-.033-4.647-.468l-3.507-1.012c-.697-.201-.854-1.118-.262-1.539l4.755-3.385c1.105-.787 1.64-2.206 1.209-3.492-.606-1.808-2.612-2.595-4.244-1.803l-10.989 5.332c-3.165 1.536-5.175 4.745-5.175 8.263v5.64l-.367.363 10.215 10.215.627-.103 36.461-13.415 3.357-1.442c1.191-.511 1.884-1.765 1.685-3.047z" fill="#f9cfcf"/><path d="m8.407 166.123c.234-1.507 1.617-2.561 3.133-2.386l5.417.624 20.568 1.655c1.564.126 3.139-.033 4.647-.468l3.507-1.012c.697-.201.854-1.118.262-1.539l-4.755-3.385c-1.105-.787-1.64-2.206-1.209-3.492.606-1.808 2.612-2.595 4.244-1.803l10.989 5.332c3.165 1.536 5.175 4.745 5.175 8.263v5.64l.367.363-10.215 10.215-.627-.103-36.46-13.414-3.357-1.442c-1.192-.512-1.885-1.766-1.686-3.048z" fill="#f9cfcf"/><g fill="#3762cc"><path d="m205.558 186.131c-.526 0-1.036-.208-1.414-.586l-10.215-10.215c-.376-.376-.587-.887-.586-1.419.001-.415.131-.815.367-1.149v-4.849c0-4.255 2.474-8.205 6.302-10.063l10.99-5.332c1.309-.635 2.827-.676 4.168-.112 1.341.563 2.378 1.686 2.845 3.079.696 2.078-.104 4.446-1.946 5.757l-2.843 2.023 1.251.361c1.28.369 2.606.501 3.932.395l20.568-1.655 5.349-.617c2.596-.299 4.937 1.487 5.337 4.066.34 2.185-.841 4.32-2.873 5.192l-3.356 1.442c-.033.014-.065.027-.099.04l-36.461 13.415c-.119.044-.242.076-.368.097l-.627.103c-.106.018-.213.027-.321.027zm-7.848-12.677 8.452 8.452 35.744-13.151 3.308-1.421c.354-.152.559-.522.5-.902 0 0 0 0 0-.001-.07-.448-.48-.759-.928-.707l-5.418.624-20.636 1.662c-1.81.145-3.614-.036-5.361-.539l-3.507-1.012c-1.067-.308-1.845-1.179-2.032-2.273s.259-2.174 1.164-2.817l4.755-3.385c.414-.294.612-.811.473-1.228-.132-.394-.4-.577-.602-.662-.166-.07-.499-.159-.873.023l-10.99 5.332c-2.459 1.193-4.048 3.73-4.048 6.464v5.541zm44.936-2.841h.01z"/><path d="m50.538 186.131c-.107 0-.215-.009-.323-.026l-.626-.103c-.125-.021-.248-.053-.367-.097l-36.462-13.415c-.034-.012-.066-.025-.099-.04l-3.357-1.442c-2.031-.872-3.213-3.007-2.873-5.192 0 0 0 0 0-.001.402-2.579 2.755-4.361 5.338-4.065l5.417.624 20.5 1.648c1.328.107 2.652-.026 3.933-.396l1.251-.361-2.842-2.023c-1.842-1.312-2.642-3.679-1.946-5.757.467-1.394 1.504-2.516 2.845-3.079s2.861-.523 4.168.112l10.989 5.332c3.829 1.858 6.302 5.808 6.302 10.063v4.849c.236.334.366.735.367 1.149.001.532-.209 1.043-.586 1.419l-10.215 10.215c-.378.378-.889.586-1.414.586zm-36.347-17.376 35.743 13.151 8.452-8.452v-5.542c0-2.733-1.589-5.271-4.048-6.464l-10.989-5.332c-.376-.182-.708-.093-.873-.023-.202.084-.47.268-.602.662-.14.417.059.933.473 1.228l4.754 3.384c.904.643 1.351 1.722 1.164 2.816-.186 1.095-.965 1.966-2.032 2.273l-3.507 1.012c-1.746.503-3.551.683-5.362.539l-20.568-1.655-5.486-.63c-.454-.055-.858.258-.928.707-.059.379.146.75.5.902z"/><path d="m90.528 229.442c-1.104 0-2-.896-2-2v-20.492c0-1.104.896-2 2-2s2 .896 2 2v20.492c0 1.105-.896 2-2 2z"/><path d="m165.528 229.442c-1.104 0-2-.896-2-2v-20.492c0-1.104.896-2 2-2s2 .896 2 2v20.492c0 1.105-.896 2-2 2z"/><path d="m165.528 236.941h-75c-1.104 0-2-.896-2-2v-3.588c-3.678 1.651-8.16.97-11.177-2.048l-34.581-34.578c-.755-.755-1.172-1.759-1.172-2.828s.417-2.073 1.172-2.829l18.029-18.029c1.56-1.56 4.098-1.559 5.656 0l17.935 17.934 8.496-8.868c3.708-4.553 9.187-7.163 15.046-7.163h2.491v-5.075c0-.695.361-1.34.953-1.704.592-.365 1.33-.395 1.95-.081 4.578 2.316 9.524 3.491 14.702 3.491 5.174 0 10.118-1.173 14.693-3.486.619-.314 1.357-.284 1.95.081.592.364.952 1.009.952 1.704v5.071h2.5c5.178 0 10.042 2.014 13.707 5.674.031.029.062.059.091.089l9.788 10.264 17.931-17.931c1.56-1.56 4.098-1.559 5.656 0l18.03 18.03c.756.755 1.172 1.76 1.172 2.828 0 1.069-.417 2.073-1.172 2.829l-34.581 34.579c-1.888 1.889-4.399 2.929-7.071 2.929-1.455 0-2.861-.309-4.146-.894v3.601c0 1.103-.896 1.998-2 1.998zm-73-4h71v-5.54c0-.809.487-1.538 1.235-1.848.747-.311 1.608-.138 2.179.434l.49.49c1.133 1.133 2.64 1.757 4.243 1.757s3.109-.624 4.242-1.757l34.582-34.579-18.029-18.03-18.655 18.655c-.577.577-1.362.863-2.157.878-.814-.01-1.573-.339-2.135-.929l-10.437-10.944c-.01-.009-.02-.019-.029-.029-2.916-2.938-6.798-4.556-10.933-4.556h-4.539c-.55 0-1.077-.227-1.454-.627-.378-.4-.574-.938-.542-1.488l.015-.234c.009-.138.02-.275.02-.416v-3.208c-4.307 1.729-8.866 2.603-13.596 2.603-4.733 0-9.295-.875-13.604-2.606v3.211c0 .141.011.278.02.416l.015.234c.032.549-.165 1.087-.542 1.488-.377.4-.904.627-1.454.627h-4.53c-4.673 0-9.042 2.093-11.988 5.743-.036.044-.073.086-.112.127l-9.26 9.666c-.564.587-1.322.916-2.135.924-.818-.01-1.578-.304-2.152-.879l-18.656-18.656-18.03 18.03 34.581 34.578c2.34 2.34 6.146 2.339 8.486 0l.449-.449c.572-.572 1.432-.744 2.179-.434.748.31 1.235 1.039 1.235 1.848v5.5z"/></g></svg>