<?xml version="1.0" encoding="iso-8859-1"?>
<!-- Generator: Adobe Illustrator 19.0.0, SVG Export Plug-In . SVG Version: 6.00 Build 0)  -->
<svg version="1.1" id="Capa_1" xmlns="http://www.w3.org/2000/svg" xmlns:xlink="http://www.w3.org/1999/xlink" x="0px" y="0px"
	 viewBox="0 0 512 512" style="enable-background:new 0 0 512 512;" xml:space="preserve">
<path style="fill:#32D736;" d="M346.425,158.183c-18.66-41.53-52.19-66.33-90.25-66.33c-28.51,0-42.12,10.17-53.04,18.33
	c-10.08,7.58-15.89,11.5-21.96,11.42c-5.78-0.08-11.79-3.78-21.96-11.42c-10.93-8.16-24.54-18.33-53.04-18.33
	c-68.32,0-113.98,75.96-104.93,166.5c9.19,91.68,68.44,163.5,134.93,163.5c10.03,0,19.92-1.81,29.37-5.39
	c5.05-1.88,10.35-2.82,15.63-2.82c6.81,0,13.6,1.57,19.84,4.67c0.41,0.21,0.83,0.42,1.24,0.64c25.58,13.68,67.21,18.2,86.25-3.22
	C368.165,326.073,374.985,221.773,346.425,158.183z"/>
<path style="fill:#10BB67;" d="M288.505,415.733c-19.04,21.42-60.67,16.9-86.25,3.22c-0.41-0.22-0.83-0.43-1.24-0.64
	c-6.24-3.08-13.03-4.45-19.84-4.45v-292.26c6.07,0.08,11.88-3.84,21.96-11.42c10.92-8.16,24.53-18.33,53.04-18.33
	c38.06,0,71.59,24.8,90.25,66.33C374.985,221.773,368.165,326.073,288.505,415.733z"/>
<path style="fill:#713708;" d="M401.445,117.463c-29.85,29.85-55.61,55.6-55.61,109.39c0,2.57-0.51,4.81-1.39,6.72
	c-0.14,0.3-0.29,0.6-0.46,0.88c-0.63,1.16-1.42,2.18-2.32,3.05c-0.67,0.66-1.4,1.25-2.19,1.74c-0.01,0.01-0.02,0.01-0.02,0.02
	c-0.304,0.196-0.617,0.377-0.935,0.549c-0.063,0.035-0.129,0.065-0.193,0.098c-0.262,0.137-0.527,0.268-0.796,0.389
	c-0.065,0.029-0.131,0.056-0.196,0.084c-0.282,0.123-0.567,0.236-0.856,0.342c-0.046,0.017-0.093,0.033-0.139,0.05
	c-0.328,0.116-0.66,0.222-0.996,0.317c-0.007,0.001-0.013,0.004-0.02,0.005c-8.645,2.426-19.49-2.301-19.49-14.244
	c0-27.54,5.91-49.53,15-68c12.74-25.95,31.73-44.94,49.35-62.56C394.365,82.233,415.335,103.573,401.445,117.463z"/>
<path style="fill:#FD003A;" d="M474.235,213.633c-31.52-34.84-80.63-43.92-121.44-13.45c-10.09,7.58-15.9,11.5-21.96,11.42
	c-5.77-0.08-11.79-3.78-21.95-11.42c-40.8-30.46-89.58-21.4-121.1,13.45c-28.2,31.15-41.86,81.53-36.54,134.72
	c11.12,110.93,92.94,184.98,163.96,158.11c5.04-1.89,10.34-2.82,15.63-2.82c5.31,0,10.6,0.94,15.62,2.82
	c71.46,26.99,153.25-47.73,164.31-158.11C516.085,295.163,502.435,244.783,474.235,213.633z"/>
<path style="fill:#E50027;" d="M510.765,348.353c-11.06,110.38-92.85,185.1-164.31,158.11c-5.02-1.88-10.31-2.82-15.62-2.82v-292.04
	c6.06,0.08,11.87-3.84,21.96-11.42c40.81-30.47,89.92-21.39,121.44,13.45C502.435,244.783,516.085,295.163,510.765,348.353z"/>
<path style="fill:#994C0F;" d="M196.175,136.853c0,10-7.5,15-15,15s-15.01-5-15.01-15c0-53.79-25.76-81.23-55.61-111.08
	c-13.83-13.83,6.99-35.21,21.21-21.2l0.01-0.01c17.64,17.64,36.65,37.22,49.4,63.64C190.255,87.023,196.175,109.313,196.175,136.853
	z"/>
<g>
</g>
<g>
</g>
<g>
</g>
<g>
</g>
<g>
</g>
<g>
</g>
<g>
</g>
<g>
</g>
<g>
</g>
<g>
</g>
<g>
</g>
<g>
</g>
<g>
</g>
<g>
</g>
<g>
</g>
</svg>
