<svg height="472pt" viewBox="-3 0 471 472" width="472pt" xmlns="http://www.w3.org/2000/svg"><path d="m112.5 200c61.855469 0 112 50.144531 112 112s-50.144531 112-112 112-112-50.144531-112-112 50.144531-112 112-112zm0 0" fill="#f19601"/><path d="m352.5 200c61.855469 0 112 50.144531 112 112s-50.144531 112-112 112-112-50.144531-112-112 50.144531-112 112-112zm0 0" fill="#f19601"/><path d="m232.5 56c61.855469 0 112 50.144531 112 112s-50.144531 112-112 112-112-50.144531-112-112 50.144531-112 112-112zm0 0" fill="#f1be33"/><path d="m232.5 248c61.855469 0 112 50.144531 112 112s-50.144531 112-112 112-112-50.144531-112-112 50.144531-112 112-112zm0 0" fill="#edae00"/><path d="m136.5 8h48c26.507812 0 48 21.492188 48 48h-48c-26.507812 0-48-21.492188-48-48zm0 0" fill="#166d4c"/><path d="m240.5 64h-16v-16c.027344-26.5 21.5-47.9726562 48-48v16c-17.671875 0-32 14.328125-32 32zm0 0" fill="#b08149"/><path d="m288.5 216h-24c-17.671875 0-32 14.328125-32 32h24c17.671875 0 32-14.328125 32-32zm0 0" fill="#1d9166"/><path d="m240.5 256h-16v-16c0-17.671875-14.328125-32-32-32v-16c26.5.027344 47.972656 21.5 48 48zm0 0" fill="#b08149"/><path d="m232.5 103.296875c-10.125-.003906-20.023438-3.011719-28.441406-8.640625l8.882812-13.3125c11.839844 7.914062 27.277344 7.914062 39.117188 0l8.882812 13.3125c-8.417968 5.628906-18.316406 8.636719-28.441406 8.640625zm0 0" fill="#edae00"/><path d="m232.5 295.296875c-10.125-.003906-20.023438-3.011719-28.441406-8.640625l8.882812-13.3125c11.839844 7.914062 27.277344 7.914062 39.117188 0l8.882812 13.3125c-8.417968 5.628906-18.316406 8.636719-28.441406 8.640625zm0 0" fill="#f1be33"/><path d="m112.5 247.296875c-10.125-.003906-20.023438-3.011719-28.441406-8.640625l8.882812-13.3125c11.839844 7.914062 27.277344 7.914062 39.117188 0l8.882812 13.3125c-8.417968 5.628906-18.316406 8.636719-28.441406 8.640625zm0 0" fill="#edae00"/><path d="m352.5 247.296875c-10.125-.003906-20.023438-3.011719-28.441406-8.640625l8.882812-13.3125c11.839844 7.914062 27.277344 7.914062 39.117188 0l8.882812 13.3125c-8.417968 5.628906-18.316406 8.636719-28.441406 8.640625zm0 0" fill="#edae00"/><path d="m40.5 152h32c26.507812 0 48 21.492188 48 48h-32c-26.507812 0-48-21.492188-48-48zm0 0" fill="#1d9166"/><path d="m344.5 200c0-26.507812 21.492188-48 48-48h24c0 26.507812-21.492188 48-48 48zm0 0" fill="#166d4c"/></svg>